<?xml version="1.0" encoding="utf-8"?>
<svg viewBox="0 0 134 24" fill="none" xmlns="http://www.w3.org/2000/svg">
  <path fill-rule="evenodd" clip-rule="evenodd" d="M 56.254 14.535 L 56.254 13.113 L 58.309 12.349 L 56.254 11.584 L 56.254 10.163 L 60.259 11.623 L 60.268 11.623 L 60.268 13.084 L 60.259 13.084 L 56.254 14.536 L 56.254 14.535 Z" fill="white" style=""/>
  <path fill-rule="evenodd" clip-rule="evenodd" d="M 18.582 8.81 C 19.045 9.331 19.287 10.02 19.259 10.725 L 19.259 14.569 L 17.636 14.569 L 17.636 11.079 C 17.656 10.689 17.535 10.308 17.296 10.004 C 17.072 9.735 16.739 9.585 16.393 9.601 C 15.377 9.601 14.866 10.326 14.866 11.774 L 14.866 14.569 L 13.244 14.569 L 13.244 8.259 L 14.866 8.259 L 14.866 8.828 C 15.384 8.314 16.081 8.04 16.801 8.071 C 17.47 8.042 18.118 8.311 18.582 8.81 Z" fill="white" style=""/>
  <path fill-rule="evenodd" clip-rule="evenodd" d="M 19.912 7.695 L 19.138 8.917 L 21.381 8.98 L 21.32 14.791 L 23.483 14.791 L 23.422 9.088 L 24.927 8.925 L 26.116 7.695 L 19.912 7.695 Z" fill="white" style=""/>
  <path d="M 4.55 15.013 C 3.64 15.013 2.683 14.869 1.933 14.524 L 1.933 8.437 C 2.671 8.102 3.627 7.949 4.55 7.949 C 5.472 7.949 6.406 8.092 7.143 8.437 L 7.143 10.773 L 5.287 10.773 L 5.287 9.183 C 5.068 9.107 4.803 9.078 4.538 9.078 C 4.273 9.078 4.03 9.107 3.8 9.183 L 3.8 13.778 C 4.019 13.854 4.272 13.883 4.538 13.883 C 4.804 13.883 5.057 13.854 5.287 13.778 L 5.287 12.19 L 7.143 12.19 L 7.143 14.525 C 6.417 14.86 5.46 15.004 4.55 15.014 L 4.55 15.013 Z" fill="white" style=""/>
  <path d="M 35.787 15.604 C 34.628 15.604 33.512 15.419 32.626 15.04 L 32.626 8.577 C 33.498 8.208 34.616 8.023 35.787 8.023 C 36.957 8.023 38.048 8.197 38.919 8.577 L 38.919 15.04 C 38.062 15.419 36.932 15.594 35.787 15.604 Z M 36.726 9.369 C 36.469 9.287 36.154 9.246 35.774 9.246 C 35.392 9.246 35.093 9.287 34.834 9.369 L 34.834 14.249 C 35.092 14.341 35.406 14.383 35.774 14.383 C 36.142 14.383 36.454 14.341 36.726 14.249 L 36.726 9.369 Z" fill="white" style=""/>
  <path d="M 29.036 12.498 L 28.546 12.498 L 28.546 15.088 L 26.691 15.088 L 26.691 7.944 L 29.036 7.944 C 30.152 7.944 30.995 8.142 31.654 8.548 L 31.654 11.893 C 31.3 12.11 30.983 12.135 30.496 12.235 C 30.496 12.235 31.77 14.845 31.388 14.92 C 31.13 14.971 29.24 12.498 29.036 12.498 Z M 29.811 9.174 C 29.64 9.065 29.412 9.015 29.024 9.015 L 28.523 9.015 L 28.523 11.426 L 29.024 11.426 C 29.401 11.426 29.627 11.377 29.811 11.278 L 29.811 9.174 Z" fill="white" style=""/>
  <path d="M 10.189 14.913 C 9.279 14.913 8.322 14.769 7.572 14.424 L 7.572 8.337 C 8.31 8.002 9.266 7.849 10.189 7.849 C 11.111 7.849 12.045 7.992 12.782 8.337 L 12.782 12.084 L 10.926 12.233 L 10.926 9.083 C 10.707 9.007 10.442 8.978 10.177 8.978 C 9.912 8.978 9.669 9.007 9.439 9.083 L 9.439 13.678 C 9.658 13.754 9.911 13.783 10.177 13.783 C 10.443 13.783 10.696 13.754 10.926 13.678 L 10.926 12.09 L 12.782 12.09 L 12.782 14.425 C 12.056 14.76 11.099 14.904 10.189 14.914 L 10.189 14.913 Z" fill="white" style=""/>
  <path fill-rule="evenodd" clip-rule="evenodd" d="M 42.689 8.186 L 40.499 8.227 L 40.438 15.895 L 42.601 15.895 L 44.787 15.84 L 44.744 14.314 L 42.582 14.13 L 42.689 8.186 Z" fill="white" style=""/>
  <path fill-rule="evenodd" clip-rule="evenodd" d="M 48.299 7.898 L 46.109 7.939 L 46.048 15.607 L 48.211 15.607 L 50.397 15.552 L 50.354 14.026 L 48.192 13.842 L 48.232 12.778 L 49.538 12.722 L 49.953 11.045 L 48.098 11.148 L 48.211 9.32 L 50.14 9.174 L 50.459 8.067 L 48.299 7.898 Z" fill="white" style=""/>
  <path fill-rule="evenodd" clip-rule="evenodd" d="M 61.414 14.771 L 61.414 13.207 L 63.694 12.365 L 61.414 11.524 L 61.414 9.959 L 65.858 11.566 L 65.869 11.566 L 65.869 13.174 L 65.858 13.174 L 61.414 14.773 L 61.414 14.771 Z" fill="white" style=""/>
  <path fill-rule="evenodd" clip-rule="evenodd" d="M 75.202 6.585 L 70.407 6.645 L 70.273 17.927 L 75.009 17.927 L 79.796 17.846 L 79.702 15.601 L 74.968 15.33 L 75.202 6.585 Z" fill="white" style=""/>
  <path fill-rule="evenodd" clip-rule="evenodd" d="M 85.853 6.916 L 81.805 6.975 L 81.692 18.037 L 85.69 18.037 L 89.731 17.958 L 89.652 15.756 L 85.655 15.491 L 85.729 13.956 L 88.143 13.875 L 88.911 11.455 L 85.482 11.605 L 85.69 8.967 L 89.257 8.757 L 89.845 7.16 L 85.853 6.916 Z" fill="white" style=""/>
  <path fill-rule="evenodd" clip-rule="evenodd" d="M 96.971 5.594 L 92.952 5.661 L 92.84 18.146 L 96.81 18.146 L 96.775 15.273 L 96.971 5.594 Z" fill="white" style=""/>
  <path fill-rule="evenodd" clip-rule="evenodd" d="M 101.851 6.011 L 100.552 8.067 L 104.316 8.173 L 104.214 17.95 L 107.844 17.95 L 107.742 8.355 L 110.268 8.081 L 112.263 6.011 L 101.851 6.011 Z" fill="white" style=""/>
  <path fill-rule="evenodd" clip-rule="evenodd" d="M 119.756 6.31 L 115.708 6.369 L 115.595 17.431 L 119.593 17.431 L 123.634 17.352 L 123.555 15.15 L 119.558 14.885 L 119.632 13.35 L 122.046 13.269 L 122.814 10.849 L 119.385 10.999 L 119.593 8.361 L 123.16 8.151 L 123.748 6.554 L 119.756 6.31 Z" fill="white" style=""/>
</svg>